<svg xmlns="http://www.w3.org/2000/svg" width="900" height="1180" viewBox="0 0 900 1180" role="img" aria-labelledby="title desc">
  <title id="title">분할측량 성과도 예시</title>
  <desc id="desc">분할 전후 지번과 면적을 표시한 분할측량 성과도 예시</desc>
  <rect width="900" height="1180" fill="#fff"/>
  <text x="450" y="48" text-anchor="middle" font-family="Malgun Gothic, sans-serif" font-size="34" letter-spacing="4">분할측량 성과도</text>
  <rect x="34" y="78" width="832" height="958" fill="none" stroke="#111" stroke-width="1.2"/>
  <path d="M34 152H866M34 228H866M134 78V228M626 78V152M718 78V152M410 152V228M515 152V228" fill="none" stroke="#111"/>
  <g font-family="Malgun Gothic, sans-serif" font-size="14" fill="#111">
    <text x="84" y="120" text-anchor="middle">토지 소재</text>
    <text x="226" y="120">전북특별자치도 부안군 ○○면 ○○리 592-12</text>
    <text x="84" y="196" text-anchor="middle">측 량 자</text>
    <text x="226" y="196">2026년 05월 13일</text>
    <text x="672" y="120" text-anchor="middle">축 척</text>
    <text x="788" y="136" text-anchor="middle" font-size="11">1:1000</text>
    <text x="458" y="196" text-anchor="middle">측량성과도</text>
    <text x="638" y="196">작성자  지적기사 ○○○</text>
  </g>
  <g transform="translate(288 330)">
    <path d="M110 18 318 64 296 242 176 304 44 210Z" fill="#fdfdfd" stroke="#111" stroke-width="1.2"/>
    <path d="M156 44 164 286M64 180 304 152" fill="none" stroke="#f00" stroke-width="2"/>
    <circle cx="156" cy="44" r="4" fill="#fff" stroke="#f00" stroke-width="2"/>
    <circle cx="164" cy="286" r="4" fill="#fff" stroke="#f00" stroke-width="2"/>
    <circle cx="64" cy="180" r="4" fill="#fff" stroke="#f00" stroke-width="2"/>
    <circle cx="304" cy="152" r="4" fill="#fff" stroke="#f00" stroke-width="2"/>
    <text x="82" y="130" font-family="Malgun Gothic, sans-serif" font-size="13">592-12</text>
    <text x="206" y="112" font-family="Malgun Gothic, sans-serif" font-size="13">592-13</text>
    <text x="194" y="232" font-family="Malgun Gothic, sans-serif" font-size="13">592-14</text>
  </g>
  <g font-family="Malgun Gothic, sans-serif" font-size="13">
    <text x="93" y="524">면적 표시</text>
    <rect x="34" y="546" width="258" height="190" fill="none" stroke="#111"/>
    <path d="M34 584H292M34 622H292M34 660H292M34 698H292M132 546V736M212 546V736" stroke="#111"/>
    <text x="83" y="570" text-anchor="middle">구분</text>
    <text x="172" y="570" text-anchor="middle">지번</text>
    <text x="252" y="570" text-anchor="middle">면적(㎡)</text>
    <text x="83" y="608" text-anchor="middle">분할전</text>
    <text x="172" y="608" text-anchor="middle">592-12</text>
    <text x="252" y="608" text-anchor="middle">1,240</text>
    <text x="83" y="646" text-anchor="middle">분할후</text>
    <text x="172" y="646" text-anchor="middle">592-13</text>
    <text x="252" y="646" text-anchor="middle">620</text>
    <text x="83" y="684" text-anchor="middle">분할후</text>
    <text x="172" y="684" text-anchor="middle">592-14</text>
    <text x="252" y="684" text-anchor="middle">620</text>
  </g>
  <text x="450" y="880" text-anchor="middle" font-family="Malgun Gothic, sans-serif" font-size="15">분할측량 성과도 예시입니다.</text>
  <text x="610" y="990" text-anchor="middle" font-family="Malgun Gothic, sans-serif" font-size="22">한국국토정보공사 부안지사장</text>
</svg>
