<svg xmlns="http://www.w3.org/2000/svg" width="900" height="1180" viewBox="0 0 900 1180" role="img" aria-labelledby="title desc">
  <title id="title">경계복원측량 성과도 예시</title>
  <desc id="desc">도장과 일부 개인정보를 흐릿하게 처리한 경계복원측량 성과도 예시 이미지</desc>
  <defs>
    <filter id="stampBlur" x="-40%" y="-40%" width="180%" height="180%">
      <feGaussianBlur stdDeviation="3.2" />
    </filter>
    <style>
      .paper { fill: #fff; }
      .line { fill: none; stroke: #111; stroke-width: 1.2; }
      .thin { fill: none; stroke: #111; stroke-width: .8; }
      .label { font: 16px "Malgun Gothic", sans-serif; fill: #111; }
      .small { font: 13px "Malgun Gothic", sans-serif; fill: #111; }
      .tiny { font: 11px "Malgun Gothic", sans-serif; fill: #111; }
      .title { font: 34px "Malgun Gothic", sans-serif; letter-spacing: 4px; fill: #111; }
      .redact { fill: #6326db; opacity: .9; }
      .stamp { fill: none; stroke: #d4002a; stroke-width: 1.8; opacity: .45; filter: url(#stampBlur); }
      .stampText { font: 18px "Malgun Gothic", sans-serif; fill: #d4002a; opacity: .45; filter: url(#stampBlur); }
      .point { fill: #fff; stroke: #f00; stroke-width: 2; }
      .boundary { fill: #fdfdfd; stroke: #111; stroke-width: 1.2; }
      .subline { fill: none; stroke: #111; stroke-width: .9; }
    </style>
  </defs>

  <rect class="paper" width="900" height="1180"/>
  <text class="title" x="450" y="42" text-anchor="middle">경계복원측량 성과도</text>

  <rect class="line" x="34" y="74" width="832" height="958"/>
  <path class="line" d="M34 151H866M34 228H866M134 74V228M626 74V151M718 74V151M410 151V228M515 151V228"/>
  <text class="small" x="84" y="116" text-anchor="middle">토지 소재</text>
  <text class="small" x="84" y="194" text-anchor="middle">측 량 자</text>
  <text class="small" x="672" y="116" text-anchor="middle">축 척</text>
  <path class="thin" d="M773 102h28M787 88v28"/>
  <text class="tiny" x="788" y="132" text-anchor="middle">1:1200</text>
  <text class="small" x="458" y="190" text-anchor="middle">측량성과도</text>
  <text class="small" x="462" y="214" text-anchor="middle">작성자</text>

  <rect class="redact" x="254" y="100" width="244" height="15"/>
  <text class="small" x="230" y="116">전북특별자치도 부안군 ○○면 ○○리 592-12</text>
  <text class="small" x="229" y="190">2026년 05월 13일</text>
  <rect class="redact" x="288" y="177" width="38" height="18"/>
  <rect class="redact" x="222" y="208" width="142" height="15"/>
  <text class="small" x="222" y="222">지적기술사  홍길동</text>
  <text class="small" x="573" y="190">2026년 05월 13일</text>
  <rect class="redact" x="690" y="177" width="38" height="18"/>
  <rect class="redact" x="635" y="208" width="142" height="15"/>
  <text class="small" x="635" y="222">지적기사  김○○</text>
  <circle class="stamp" cx="393" cy="204" r="26"/>
  <text class="stampText" x="393" y="211" text-anchor="middle">인</text>
  <circle class="stamp" cx="826" cy="204" r="26"/>
  <text class="stampText" x="826" y="211" text-anchor="middle">인</text>

  <text class="tiny" x="740" y="270">ㄱ  592-2 도</text>
  <text class="tiny" x="740" y="292">ㄴ  293-2 도</text>
  <text class="tiny" x="740" y="314">ㄷ  293-3 도</text>
  <text class="tiny" x="740" y="336">ㄹ  294-2 답</text>

  <text class="small" x="106" y="500" text-anchor="middle">현 황 표 시</text>
  <rect class="line" x="34" y="520" width="230" height="140"/>
  <path class="thin" d="M34 550H264M34 580H264M34 610H264M34 640H264M134 520V660"/>
  <text class="small" x="84" y="542" text-anchor="middle">범 례</text>
  <text class="small" x="198" y="542" text-anchor="middle">명 칭</text>
  <circle class="point" cx="84" cy="570" r="4"/>
  <text class="tiny" x="160" y="574">경계복원 표시점</text>
  <text class="tiny" x="160" y="604">아래방간</text>

  <text class="small" x="107" y="810" text-anchor="middle">면 적 표 시</text>
  <rect class="line" x="34" y="830" width="230" height="220"/>
  <path class="thin" d="M34 860H264M34 890H264M34 920H264M34 950H264M34 980H264M34 1010H264M34 1040H264M134 830V1050"/>
  <text class="small" x="84" y="852" text-anchor="middle">지번 부호</text>
  <text class="small" x="198" y="852" text-anchor="middle">면적(㎡)</text>
  <text class="tiny" x="160" y="882">아래방간</text>

  <g transform="translate(382 388)">
    <path class="boundary" d="M80 24 250 38 218 88 300 142 292 178 238 205 280 266 210 302 180 286 142 304 110 280 96 236 55 258 20 226 0 170 22 82Z"/>
    <path class="subline" d="M218 88 150 138 168 212 210 302M150 138 98 125M168 212 96 236M218 88 262 130 292 178M168 212 238 205M238 205 300 142"/>
    <text class="tiny" x="78" y="86">290-1 임</text>
    <text class="tiny" x="214" y="132">292-3 임</text>
    <text class="tiny" x="150" y="184">293-1 답</text>
    <text class="tiny" x="236" y="248">294-1 답</text>
    <text class="tiny" x="66" y="206">304 답</text>
    <text class="tiny" x="118" y="260">303 답</text>
    <circle class="point" cx="150" cy="138" r="4"/>
    <circle class="point" cx="168" cy="212" r="4"/>
    <circle class="point" cx="218" cy="88" r="4"/>
    <circle class="point" cx="262" cy="130" r="4"/>
    <circle class="point" cx="292" cy="178" r="4"/>
    <circle class="point" cx="238" cy="205" r="4"/>
    <circle class="point" cx="230" cy="196" r="4"/>
    <circle class="point" cx="220" cy="204" r="4"/>
    <circle class="point" cx="214" cy="214" r="4"/>
  </g>

  <text class="small" x="450" y="830" text-anchor="middle">경계복원측량 결과도에 따라 작성하였습니다.</text>
  <text class="small" x="450" y="884" text-anchor="middle">2026년 05월 13일</text>
  <rect class="redact" x="542" y="864" width="26" height="22"/>
  <rect class="redact" x="604" y="864" width="26" height="22"/>
  <text class="label" x="610" y="974" text-anchor="middle">한국국토정보공사 부안지사장</text>
  <rect class="stamp" x="714" y="936" width="64" height="64"/>
  <text class="stampText" x="746" y="965" text-anchor="middle">직인</text>
  <text class="tiny" x="34" y="1070">[유의사항] 이 측량성과도는 측량에 사용할 수 없습니다.</text>
</svg>
